<?xml version="1.0" encoding="UTF-8" standalone="no"?>
<svg
   xml:space="preserve"
   width="1000"
   height="286.6"
   style="clip-rule:evenodd;fill-rule:evenodd;stroke-linejoin:round;stroke-miterlimit:1.41420996"
   version="1.1"
   id="svg25"
   sodipodi:docname="logo-headerPRO.svg"
   inkscape:version="1.1.2 (0a00cf5339, 2022-02-04)"
   xmlns:inkscape="http://www.inkscape.org/namespaces/inkscape"
   xmlns:sodipodi="http://sodipodi.sourceforge.net/DTD/sodipodi-0.dtd"
   xmlns:xlink="http://www.w3.org/1999/xlink"
   xmlns="http://www.w3.org/2000/svg"
   xmlns:svg="http://www.w3.org/2000/svg"><sodipodi:namedview
     id="namedview27"
     pagecolor="#ffffff"
     bordercolor="#666666"
     borderopacity="1.0"
     inkscape:pageshadow="2"
     inkscape:pageopacity="0.0"
     inkscape:pagecheckerboard="0"
     showgrid="false"
     inkscape:zoom="0.859"
     inkscape:cx="300.93132"
     inkscape:cy="303.84168"
     inkscape:window-width="1901"
     inkscape:window-height="876"
     inkscape:window-x="9"
     inkscape:window-y="109"
     inkscape:window-maximized="0"
     inkscape:current-layer="svg25" /><path
     d="M0 0h1000v286.6H0z"
     style="opacity:1;fill:#e5e5e5;fill-opacity:1;fill-rule:evenodd;stroke:none;stroke-width:.14294769px;stroke-linecap:butt;stroke-linejoin:miter;stroke-miterlimit:4;stroke-dasharray:none;stroke-dashoffset:0;stroke-opacity:1;marker:none"
     id="path2" /><g
     id="g1007"
     transform="matrix(0.40504572,0,0,0.40504572,230.70942,65.261537)"><g
       id="g182"
       transform="matrix(8.6944389,0,0,-8.6944389,652.7631,-22.703368)"
       inkscape:export-xdpi="434.30066"
       inkscape:export-ydpi="434.30066"
       style="fill:#3ce01f;fill-opacity:1"
       inkscape:export-filename="/data/CloudSafe/Business/Improve/Стиль/rustdesk/icon1024.png"><path
         d="m 0,0 c 1.514,0 2.762,-1.248 2.762,-2.761 0,-1.512 -1.248,-2.762 -2.762,-2.762 -1.512,0 -2.762,1.25 -2.762,2.762 C -2.762,-1.248 -1.512,0 0,0"
         style="fill:#3ce01f;fill-opacity:1;fill-rule:nonzero;stroke:none"
         id="path184"
         inkscape:connector-curvature="0" /></g><path
       style="fill:#3ce01f;fill-opacity:1;stroke-width:0.505076"
       d="m 649.47401,24.786281 c -7.43832,-0.841273 -14.67185,-6.127018 -17.994,-13.148723 -4.49044,-9.490999 -2.76189,-19.675826 4.58843,-27.035629 9.28937,-9.30135 23.51468,-9.431223 33.08565,-0.302064 9.33563,8.904683 9.85914,23.293456 1.19798,32.926752 -5.26869,5.860044 -12.56064,8.500363 -20.87806,7.559664 z"
       id="path11522"
       inkscape:export-filename="/data/CloudSafe/Business/Improve/Стиль/rustdesk/icon1024.png"
       inkscape:export-xdpi="434.30066"
       inkscape:export-ydpi="434.30066" /><path
       style="fill:#4e76ec;fill-opacity:1;stroke-width:0.505077"
       d="m 519.57304,157.41558 c -7.43832,-0.84129 -14.67185,-6.12703 -17.994,-13.14872 -4.49044,-9.49099 -2.76189,-19.67584 4.58843,-27.03564 9.28937,-9.30134 23.51468,-9.4312 33.08565,-0.30198 9.33563,8.90468 9.85914,23.29345 1.19798,32.92675 -5.26869,5.86005 -12.56064,8.50035 -20.87806,7.55966 z"
       id="path11522-3"
       inkscape:export-filename="/data/CloudSafe/Business/Improve/Стиль/rustdesk/icon1024.png"
       inkscape:export-xdpi="434.30066"
       inkscape:export-ydpi="434.30066" /><g
       id="g38006"
       style="fill:#4e76ec;fill-opacity:1"
       inkscape:export-filename="/data/CloudSafe/Business/Improve/Стиль/rustdesk/icon1024.png"
       inkscape:export-xdpi="434.30066"
       inkscape:export-ydpi="434.30066"
       transform="matrix(3.7795276,0,0,3.7795276,484.76257,-857.40138)"><rect
         style="fill:#4e76ec;fill-opacity:1;stroke-width:0.271669"
         id="rect36755"
         width="37.781311"
         height="12.699001"
         x="25.930054"
         y="255.87579" /><rect
         style="fill:#4e76ec;fill-opacity:1;stroke-width:0.271669"
         id="rect36755-5"
         width="37.781311"
         height="12.699001"
         x="243.12117"
         y="-50.84547"
         transform="rotate(90.00972)" /></g></g><defs
     id="defs11"><rect
       x="387.68417"
       y="140.50392"
       width="227.35637"
       height="75.463231"
       id="rect4567" /><linearGradient
       xlink:href="#a"
       id="c"
       x1=".1"
       x2=".8"
       y1=".9"
       y2=".2"
       gradientTransform="matrix(94.00173 0 0 93.99768 453 52.2)"
       gradientUnits="userSpaceOnUse" /><linearGradient
       id="a"
       x1=".1"
       x2=".8"
       y1=".9"
       y2=".2"
       gradientTransform="matrix(26.301 0 0 26.331 90.7 911.8)"
       gradientUnits="userSpaceOnUse"><stop
         offset="0"
         stop-color="#004ba6"
         style="stop-color:#0071ff;stop-opacity:1"
         id="stop5" /><stop
         offset="1"
         stop-color="#00bfe1"
         style="stop-color:#00bfe1;stop-opacity:1"
         id="stop7" /></linearGradient><path
       id="b"
       d="M412.8 154.2h247V204h-247z" /></defs><text
     xml:space="preserve"
     id="text4565"
     style="font-style:normal;font-weight:normal;font-size:40px;line-height:0;font-family:sans-serif;letter-spacing:0px;word-spacing:0px;white-space:pre;shape-inside:url(#rect4567);fill:#4e76ec;fill-opacity:1;stroke:none"
     transform="translate(0,42)"><tspan
       x="387.68359"
       y="176.99712"
       id="tspan36806"><tspan
         style="font-weight:bold;line-height:1.25;font-family:Verdana;-inkscape-font-specification:'Verdana Bold'"
         id="tspan36804">PRODESK
</tspan></tspan><tspan
       x="387.68359"
       y="207.5341"
       id="tspan36810"><tspan
         style="font-size:18.6667px"
         id="tspan36808">Your remote desktop</tspan></tspan></text></svg>
